User Type,Username,Date,Text
,ragendazs,2013-03-28T00:45Z,Fake ele passa as quartas as 22:20 foi publicado dia 27/03 as 19:30?
,JTLouco,2013-03-28T02:29Z,Agora passa as terça-feira as 22:30 na fox!
,RBSNLA,2013-03-28T02:54Z,"V=10 A=10 Excelente qualidade.Valeu JTLouco!SEMEANDO!!!

General
Complete name                      The.Walking.Dead.S03E15.HDTV.XviD.Dual.Áudio-Dublado.avi
Format                                   : AVI
Format/Info                              : Audio Video Interleave
File size                                : 387 MiB
Duration                                 : 43mn 21s
Overall bit rate mode                    : Variable
Overall bit rate                         : 1 247 Kbps

Video
ID                                       : 0
Format                                   : MPEG-4 Visual
Format profile                           : Advanced Simple@L5
Format settings, BVOP                    : 2
Format settings, QPel                    : No
Format settings, GMC                     : No warppoints
Format settings, Matrix                  : Default (H.263)
Codec ID                                 : XVID
Codec ID/Hint                            : XviD
Duration                                 : 43mn 21s
Bit rate                                 : 977 Kbps
Width                                    : 640 pixels
Height                                   : 360 pixels
Display aspect ratio                     : 16:9
Frame rate                               : 23.976 fps
Color space                              : YUV
Chroma subsampling                       : 4:2:0
Bit depth                                : 8 bits
Scan type                                : Progressive
Compression mode                         : Lossy
Bits/(Pixel*Frame)                       : 0.177
Stream size                              : 303 MiB (78%)
Writing library                          : XviD 64

Audio #1
ID                                       : 1
Format                                   : MPEG Audio
Format version                           : Version 1
Format profile                           : Layer 3
Mode                                     : Joint stereo
Mode extension                           : MS Stereo
Codec ID                                 : 55
Codec ID/Hint                            : MP3
Duration                                 : 43mn 21s
Bit rate mode                            : Constant
Bit rate                                 : 128 Kbps
Channel(s)                               : 2 channels
Sampling rate                            : 48.0 KHz
Compression mode                         : Lossy
Stream size                              : 39.7 MiB (10%)
Alignment                                : Aligned on interleaves
Interleave, duration                     : 167 ms (4.00 video frames)
Interleave, preload duration             : 216 ms
Title                                    : Portuguese - By coveiro

Audio #2
ID                                       : 2
Format                                   : MPEG Audio
Format version                           : Version 1
Format profile                           : Layer 3
Mode                                     : Joint stereo
Mode extension                           : MS Stereo
Codec ID                                 : 55
Codec ID/Hint                            : MP3
Duration                                 : 43mn 21s
Bit rate mode                            : Variable
Bit rate                                 : 128 Kbps
Channel(s)                               : 2 channels
Sampling rate                            : 48.0 KHz
Compression mode                         : Lossy
Stream size                              : 39.7 MiB (10%)
Alignment                                : Aligned on interleaves
Interleave, duration                     : 24 ms (0.58 video frame)
Interleave, preload duration             : 178 ms
Title                                    : The.Walking.Dead.S03E15.HDTV.XviD-AFG_360p.audio
"
